<?xml version="1.0" encoding="UTF-8" standalone="no"?>
<!-- Created with Inkscape (http://www.inkscape.org/) -->

<svg
   width="28.362625mm"
   height="20.178438mm"
   viewBox="0 0 28.362625 20.178438"
   version="1.1"
   id="svg5"
   inkscape:version="1.1.1 (1:1.1+202109281946+c3084ef5ed)"
   sodipodi:docname="aitournament.svg"
   xmlns:inkscape="http://www.inkscape.org/namespaces/inkscape"
   xmlns:sodipodi="http://sodipodi.sourceforge.net/DTD/sodipodi-0.dtd"
   xmlns="http://www.w3.org/2000/svg"
   xmlns:svg="http://www.w3.org/2000/svg">
  <sodipodi:namedview
     id="namedview7"
     pagecolor="#ffffff"
     bordercolor="#666666"
     borderopacity="1.0"
     inkscape:pageshadow="2"
     inkscape:pageopacity="0.0"
     inkscape:pagecheckerboard="0"
     inkscape:document-units="mm"
     showgrid="false"
     inkscape:zoom="4.3994184"
     inkscape:cx="61.371749"
     inkscape:cy="78.419457"
     inkscape:window-width="1758"
     inkscape:window-height="1227"
     inkscape:window-x="1162"
     inkscape:window-y="302"
     inkscape:window-maximized="0"
     inkscape:current-layer="layer1" />
  <defs
     id="defs2" />
  <g
     inkscape:groupmode="layer"
     id="layer2"
     inkscape:label="Layer 2"
     sodipodi:insensitive="true"
     transform="translate(-55.556678,-70.957492)">
    <g
       aria-label="Ai"
       id="text1287-8"
       style="font-size:28.2222px;line-height:1.25;font-family:Rachana;-inkscape-font-specification:'Rachana, Normal';fill:#c6c6c6;stroke-width:0.264583">
      <path
         d="m 64.486841,80.311989 h 5.002275 l -2.645831,-6.779943 z m 10.555765,7.537863 H 72.258971 L 69.99899,81.703806 q -1.433159,-0.09646 -3.031682,-0.09646 -1.584743,0 -2.935219,0.09646 l -2.011934,6.146046 h -1.405598 l 5.718854,-16.68803 h 2.122177 q 1.998154,6.862625 4.781789,12.870867 0.289388,0.633897 0.909505,1.956813 0.633897,1.309135 0.895724,1.86035 z"
         id="path33972" />
      <path
         d="m 79.603908,87.863632 h -2.2462 q 0.330729,-3.458873 0.330729,-6.394092 0,-2.935219 -0.330729,-5.636172 h 2.2462 q -0.165364,3.762041 -0.165364,6.628359 0,2.866317 0.165364,5.401905 z M 78.460137,71.368528 q 0.592556,0 1.005968,0.440972 0.427191,0.440972 0.427191,1.061088 0,0.606337 -0.427191,1.061089 -0.413412,0.440972 -1.005968,0.440972 -0.592556,0 -1.019747,-0.440972 -0.413411,-0.454752 -0.413411,-1.061089 0,-0.620116 0.413411,-1.061088 0.427191,-0.440972 1.019747,-0.440972 z"
         id="path33974" />
    </g>
  </g>
  <g
     inkscape:label="Layer 1"
     inkscape:groupmode="layer"
     id="layer1"
     style="display:inline"
     transform="translate(-55.556678,-70.957492)">
    <g
       aria-label="Ai"
       id="text1287"
       style="font-size:28.2222px;line-height:1.25;font-family:Rachana;-inkscape-font-specification:'Rachana, Normal';stroke-width:0.264583">
      <path
         d="m 64.037249,80.107658 h 5.002274 l -2.645831,-6.779942 z m 10.555764,7.537863 h -2.783635 l -2.259981,-6.146045 q -1.433158,-0.09646 -3.031681,-0.09646 -1.584743,0 -2.93522,0.09646 l -2.011934,6.146045 h -1.405598 l 5.718854,-16.688029 h 2.122178 q 1.998153,6.862625 4.781788,12.870867 0.289388,0.633897 0.909505,1.956812 0.633897,1.309136 0.895724,1.86035 z"
         id="path33949" />
      <path
         d="m 79.154316,87.659302 h -2.246201 q 0.330729,-3.458873 0.330729,-6.394093 0,-2.935219 -0.330729,-5.636171 h 2.246201 q -0.165365,3.762041 -0.165365,6.628358 0,2.866317 0.165365,5.401906 z M 78.010545,71.164197 q 0.592556,0 1.005967,0.440972 0.427191,0.440972 0.427191,1.061089 0,0.606336 -0.427191,1.061088 -0.413411,0.440972 -1.005967,0.440972 -0.592556,0 -1.019748,-0.440972 -0.413411,-0.454752 -0.413411,-1.061088 0,-0.620117 0.413411,-1.061089 0.427192,-0.440972 1.019748,-0.440972 z"
         id="path33951" />
    </g>
    <g
       aria-label="Tournament"
       id="text18761"
       style="font-size:5.29167px;line-height:1.25;font-family:AnjaliOldLipi;-inkscape-font-specification:'AnjaliOldLipi, Normal';stroke-width:0.264583">
      <path
         d="m 55.556678,87.283455 h 3.012737 v 0.356568 h -1.333252 v 3.431317 h -0.356568 v -3.431317 h -1.322917 z"
         id="path33995" />
      <path
         d="m 60.489196,88.691639 q -0.147278,-0.05684 -0.38499,-0.05684 -0.237711,0 -0.418579,0.103353 -0.178284,0.103353 -0.281637,0.26355 -0.191203,0.289388 -0.191203,0.695048 0,0.40566 0.193787,0.707968 0.240296,0.374654 0.728638,0.374654 0.488343,0 0.731222,-0.408244 0.186035,-0.310059 0.183452,-0.66921 0,-0.793234 -0.56069,-1.010275 z m -1.131715,-0.1757 q 0.144695,-0.108521 0.335897,-0.173116 0.193787,-0.0646 0.459921,-0.0646 0.268718,0 0.47284,0.07493 0.204122,0.07493 0.397908,0.245463 0.193787,0.167949 0.289389,0.485759 0.09302,0.320394 0.09302,0.5271 0,0.206706 -0.03876,0.444417 -0.04134,0.24288 -0.222209,0.537436 -0.09302,0.155029 -0.232544,0.273885 -0.315226,0.268718 -0.775147,0.268718 -0.459921,0 -0.775147,-0.24288 -0.390157,-0.29714 -0.480591,-0.881084 -0.02584,-0.16278 -0.02584,-0.310058 0,-0.149862 0.02325,-0.312643 0.02584,-0.162781 0.08527,-0.320394 0.05943,-0.160197 0.15503,-0.302307 0.0956,-0.144694 0.237711,-0.250631 z"
         id="path33997" />
      <path
         d="m 63.81716,90.645009 q -0.452169,0.488343 -0.875916,0.488343 -0.423747,0.0026 -0.682129,-0.240296 -0.258383,-0.242879 -0.258383,-0.617534 V 88.324736 H 62.3573 v 1.950786 q 0,0.219625 0.165365,0.361736 0.165364,0.139526 0.403076,0.139526 0.304891,-0.0026 0.68213,-0.436666 0.111104,-0.129191 0.209289,-0.271301 v -1.744081 h 0.356568 v 2.74402 H 63.81716 Z"
         id="path33999" />
      <path
         d="m 65.292523,88.758818 q 0.341065,-0.480591 0.808737,-0.480591 h 0.240295 v 0.356568 H 66.10126 q -0.307475,0 -0.547771,0.320394 -0.178283,0.235128 -0.260966,0.550354 v 1.563213 h -0.356567 v -2.74402 h 0.356567 z"
         id="path34001" />
      <path
         d="m 67.090865,88.76657 q 0.452169,-0.488343 0.875916,-0.488343 0.423747,0 0.682129,0.242879 0.258382,0.24288 0.258382,0.61495 v 1.9327 h -0.356567 v -1.9327 q 0,-0.219625 -0.165365,-0.359151 -0.165365,-0.14211 -0.403076,-0.14211 -0.403077,0 -0.891419,0.707967 v 1.725994 h -0.356568 v -2.74402 h 0.356568 z"
         id="path34003" />
      <path
         d="m 71.434271,90.748362 q -0.47284,0.38499 -0.914674,0.38499 -0.586527,0 -0.81132,-0.260966 -0.173116,-0.201539 -0.173116,-0.573609 0,-0.372071 0.28422,-0.609782 0.377239,-0.315227 1.095541,-0.315227 h 0.519349 v -0.20929 q -0.0026,-0.224792 -0.188619,-0.377238 -0.186035,-0.152445 -0.521932,-0.152445 -0.33073,0 -0.545187,0.139526 -0.214457,0.139527 -0.214457,0.335897 h -0.356568 q 0,-0.341065 0.315226,-0.586528 0.315227,-0.245463 0.806153,-0.245463 0.490927,0 0.775147,0.253215 0.284221,0.253214 0.286804,0.633036 v 1.904278 h -0.356567 z m -1.297079,-0.02584 q 0.118856,0.05426 0.441833,0.05426 0.325562,0 0.855246,-0.506429 v -0.540019 h -0.519349 q -0.744141,0 -0.961182,0.356567 -0.05684,0.09819 -0.05943,0.248047 0,0.147278 0.06201,0.240296 0.0646,0.09043 0.180868,0.147278 z"
         id="path34005" />
      <path
         d="m 74.560696,88.815662 q 0.428915,-0.537435 0.852662,-0.537435 0.423747,0 0.64854,0.235128 0.224792,0.235128 0.224792,0.622701 v 1.9327 h -0.356567 v -1.9327 q 0,-0.3514 -0.279053,-0.465088 -0.09302,-0.03617 -0.258383,-0.03617 -0.16278,0 -0.364319,0.19637 -0.204122,0.196371 -0.418579,0.529684 v 1.707907 h -0.356568 v -1.9327 q -0.0026,-0.3514 -0.281636,-0.465088 -0.09302,-0.03617 -0.250631,-0.03617 -0.155029,0 -0.3514,0.180867 -0.193787,0.180868 -0.418579,0.519349 v 1.733745 h -0.356568 v -2.74402 h 0.356568 v 0.413412 q 0.390157,-0.459921 0.81132,-0.459921 0.315226,0 0.516765,0.147278 0.204122,0.144694 0.281636,0.390157 z"
         id="path34007" />
      <path
         d="m 77.206533,89.797515 q 0.03617,0.423747 0.279052,0.7028 0.24288,0.279053 0.633037,0.276469 0.359152,-0.0026 0.596863,-0.20929 0.09819,-0.08268 0.142111,-0.167948 0.04651,-0.08785 0.04651,-0.136943 h 0.356568 q 0.0026,0.224793 -0.271301,0.516765 -0.333314,0.353984 -0.757061,0.353984 -0.421163,0 -0.658875,-0.116272 -0.235128,-0.118856 -0.397908,-0.320394 -0.33073,-0.408244 -0.33073,-1.007691 0,-0.599447 0.325562,-1.005108 0.325562,-0.40566 0.925009,-0.40566 0.599447,0 0.925008,0.390157 0.325562,0.387574 0.325562,1.129131 z m 1.772502,-0.356567 q -0.09043,-0.806153 -0.917257,-0.806153 -0.346232,0 -0.568441,0.232544 -0.222209,0.232544 -0.276469,0.573609 z"
         id="path34009" />
      <path
         d="m 80.322623,88.76657 q 0.452169,-0.488343 0.875916,-0.488343 0.423747,0 0.682129,0.242879 0.258382,0.24288 0.258382,0.61495 v 1.9327 h -0.356567 v -1.9327 q 0,-0.219625 -0.165365,-0.359151 -0.165365,-0.14211 -0.403076,-0.14211 -0.403077,0 -0.891419,0.707967 v 1.725994 h -0.356568 v -2.74402 h 0.356568 z"
         id="path34011" />
      <path
         d="m 83.33536,90.417633 q 0,0.294556 0.299724,0.294556 h 0.28422 v 0.356567 h -0.28422 q -0.24288,0 -0.423747,-0.136943 -0.232545,-0.173116 -0.232545,-0.51418 v -1.707907 h -0.392741 v -0.356568 h 0.392741 v -0.705384 h 0.356568 v 0.705384 h 0.519349 v 0.356568 H 83.33536 Z"
         id="path34013" />
    </g>
  </g>
</svg>
