<?xml version="1.0" encoding="UTF-8" standalone="no"?>
<!-- Created with Inkscape (http://www.inkscape.org/) -->

<svg
   width="104.97245mm"
   height="16.717299mm"
   viewBox="0 0 104.97245 16.717299"
   version="1.1"
   id="svg5"
   sodipodi:docname="aitournament_long_path.svg"
   inkscape:export-filename="/home/nathan/aitournament.png"
   inkscape:export-xdpi="96"
   inkscape:export-ydpi="96"
   inkscape:version="1.1.1 (1:1.1+202109281946+c3084ef5ed)"
   xmlns:inkscape="http://www.inkscape.org/namespaces/inkscape"
   xmlns:sodipodi="http://sodipodi.sourceforge.net/DTD/sodipodi-0.dtd"
   xmlns="http://www.w3.org/2000/svg"
   xmlns:svg="http://www.w3.org/2000/svg">
  <sodipodi:namedview
     id="namedview7"
     pagecolor="#ffffff"
     bordercolor="#666666"
     borderopacity="1.0"
     inkscape:pageshadow="2"
     inkscape:pageopacity="0.0"
     inkscape:pagecheckerboard="0"
     inkscape:document-units="mm"
     showgrid="false"
     inkscape:zoom="1.5554293"
     inkscape:cx="171.65679"
     inkscape:cy="63.648023"
     inkscape:window-width="1758"
     inkscape:window-height="1227"
     inkscape:window-x="271"
     inkscape:window-y="335"
     inkscape:window-maximized="0"
     inkscape:current-layer="layer1" />
  <defs
     id="defs2" />
  <g
     inkscape:groupmode="layer"
     id="layer3"
     inkscape:label="Layer 3"
     style="display:inline"
     transform="translate(-60.164964,-70.957492)" />
  <g
     inkscape:groupmode="layer"
     id="layer2"
     inkscape:label="Layer 2"
     style="display:inline"
     transform="translate(-60.164964,-70.957492)">
    <g
       aria-label="Ai"
       id="text1287-8"
       style="font-size:28.2222px;line-height:1.25;font-family:Rachana;-inkscape-font-specification:'Rachana, Normal';fill:#c6c6c6;stroke-width:0.264583">
      <path
         d="m 64.486841,80.311989 h 5.002275 l -2.645831,-6.779943 z m 10.555765,7.537863 H 72.258971 L 69.99899,81.703806 q -1.433159,-0.09646 -3.031682,-0.09646 -1.584743,0 -2.935219,0.09646 l -2.011934,6.146046 h -1.405598 l 5.718854,-16.68803 h 2.122177 q 1.998154,6.862625 4.781789,12.870867 0.289388,0.633897 0.909505,1.956813 0.633897,1.309135 0.895724,1.86035 z"
         id="path33972" />
      <path
         d="m 79.603908,87.863632 h -2.2462 q 0.330729,-3.458873 0.330729,-6.394092 0,-2.935219 -0.330729,-5.636172 h 2.2462 q -0.165364,3.762041 -0.165364,6.628359 0,2.866317 0.165364,5.401905 z M 78.460137,71.368528 q 0.592556,0 1.005968,0.440972 0.427191,0.440972 0.427191,1.061088 0,0.606337 -0.427191,1.061089 -0.413412,0.440972 -1.005968,0.440972 -0.592556,0 -1.019747,-0.440972 -0.413411,-0.454752 -0.413411,-1.061089 0,-0.620116 0.413411,-1.061088 0.427191,-0.440972 1.019747,-0.440972 z"
         id="path33974" />
    </g>
  </g>
  <g
     inkscape:label="Layer 1"
     inkscape:groupmode="layer"
     id="layer1"
     style="display:inline"
     transform="translate(-60.164964,-70.957492)">
    <g
       aria-label="Ai"
       id="text1287"
       style="font-size:28.2222px;line-height:1.25;font-family:Rachana;-inkscape-font-specification:'Rachana, Normal';stroke-width:0.264583">
      <path
         d="m 64.037249,80.107658 h 5.002274 l -2.645831,-6.779942 z m 10.555764,7.537863 h -2.783635 l -2.259981,-6.146045 q -1.433158,-0.09646 -3.031681,-0.09646 -1.584743,0 -2.93522,0.09646 l -2.011934,6.146045 h -1.405598 l 5.718854,-16.688029 h 2.122178 q 1.998153,6.862625 4.781788,12.870867 0.289388,0.633897 0.909505,1.956812 0.633897,1.309136 0.895724,1.86035 z"
         id="path33949" />
      <path
         d="m 79.154316,87.659302 h -2.246201 q 0.330729,-3.458873 0.330729,-6.394093 0,-2.935219 -0.330729,-5.636171 h 2.246201 q -0.165365,3.762041 -0.165365,6.628358 0,2.866317 0.165365,5.401906 z M 78.010545,71.164197 q 0.592556,0 1.005967,0.440972 0.427191,0.440972 0.427191,1.061089 0,0.606336 -0.427191,1.061088 -0.413411,0.440972 -1.005967,0.440972 -0.592556,0 -1.019748,-0.440972 -0.413411,-0.454752 -0.413411,-1.061088 0,-0.620117 0.413411,-1.061089 0.427192,-0.440972 1.019748,-0.440972 z"
         id="path33951" />
    </g>
    <g
       aria-label="Tournament"
       id="text18761"
       style="font-size:18.2038px;line-height:1.25;font-family:Rachana;-inkscape-font-specification:'Rachana, Normal';stroke-width:0.910192">
      <path
         d="m 92.251104,76.670735 v 0.888857 h -3.24433 q -0.08,2.55991 -0.08,5.013156 0,2.453247 0.08,4.888716 h -1.546612 q 0.142217,-2.471024 0.142217,-4.995379 0,-2.524355 -0.142217,-4.906493 h -3.235441 v -0.888857 q 1.928821,0.151105 3.999858,0.151105 2.071038,0 4.026525,-0.151105 z"
         id="path35168" />
      <path
         d="m 99.281965,85.319318 q 0.159995,-0.479983 0.213326,-0.933301 0.06222,-0.462206 0.06222,-0.986632 0,-0.524425 -0.106663,-1.05774 -0.106663,-0.542203 -0.346654,-1.048852 -0.231103,-0.506648 -0.675532,-0.80886 -0.444429,-0.3111 -0.99552,-0.3111 -0.542203,0 -0.9333,0.213326 -0.391098,0.204437 -0.631089,0.533314 -0.239992,0.328877 -0.399986,0.782195 -0.266657,0.791083 -0.266657,1.591055 0,0.791083 0.106663,1.351063 0.106662,0.55998 0.337765,1.111072 0.231103,0.542203 0.666643,0.879969 0.444429,0.328877 0.986632,0.328877 0.551092,0 0.942189,-0.222215 0.399986,-0.231103 0.639977,-0.586645 0.239992,-0.364432 0.399986,-0.835526 z m 1.839935,-1.804381 q 0,1.111072 -0.45332,2.053261 -0.45331,0.942188 -1.324395,1.528834 -0.862191,0.577758 -1.973263,0.577758 -1.111072,0 -1.982152,-0.577758 -0.862192,-0.586646 -1.306621,-1.528834 -0.444428,-0.942189 -0.444428,-2.053261 0,-1.697718 1.031074,-2.87101 1.039963,-1.18218 2.702127,-1.18218 1.662163,0 2.702128,1.18218 1.04885,1.173292 1.04885,2.87101 z"
         id="path35170" />
      <path
         d="m 102.47296,85.337095 0.11556,-3.715424 q 0,-0.577758 -0.15111,-1.973264 h 1.53772 v 5.510916 q 0,0.702198 0.35555,1.137738 0.35554,0.426651 1.11107,0.426651 0.76442,0 1.46661,-0.604423 0.71109,-0.604423 0.71109,-1.43106 v -5.039822 h 1.49328 q -0.15111,2.008818 -0.15111,3.910973 0,1.893266 0.15111,3.902084 h -1.4044 l -0.08,-1.199958 q -0.42665,0.639978 -1.12885,1.013298 -0.7022,0.37332 -1.61772,0.37332 -0.90664,0 -1.66217,-0.631089 -0.74664,-0.639977 -0.74664,-1.67994 z"
         id="path35172" />
      <path
         d="m 115.69916,79.69285 -0.55109,1.30662 q -0.60442,-0.399985 -1.28884,-0.399985 -0.67554,0 -1.2444,0.6222 -0.55998,0.6222 -0.63109,1.413283 -0.0356,0.43554 -0.0267,0.9333 0.0178,0.488872 0.0178,0.639978 l 0.009,3.253218 h -1.50217 q 0.1511,-2.017706 0.1511,-3.875418 0,-1.866601 -0.1511,-3.92875 h 1.3244 l 0.15999,1.315509 q 0.43554,-0.702198 1.11107,-1.111072 0.68442,-0.408875 1.36884,-0.408875 0.69331,0 1.25329,0.239992 z"
         id="path35174" />
      <path
         d="m 123.23667,82.119431 -0.11555,3.413212 q 0,0.826638 0.11555,1.928821 h -1.49328 v -4.61317 q 0,-1.715495 -0.80886,-2.266587 -0.32887,-0.222214 -0.79997,-0.222214 -0.8533,0 -1.44884,0.657755 -0.58664,0.657754 -0.58664,1.537723 v 4.906493 h -1.49328 q 0.1511,-2.044372 0.1511,-3.902084 0,-1.857712 -0.1511,-3.902084 h 1.30662 l 0.16888,1.146626 q 0.42665,-0.613312 1.0933,-0.977743 0.66664,-0.373321 1.3955,-0.373321 1.13774,0 1.90216,0.755529 0.76441,0.755529 0.76441,1.911044 z"
         id="path35176" />
      <path
         d="m 129.54756,84.501569 q 0,-0.213326 -0.0444,-1.306621 -0.3911,0.151106 -1.08441,0.275546 -0.68442,0.12444 -1.06663,0.257769 -0.38221,0.133328 -0.63998,0.302211 -0.61331,0.408875 -0.61331,1.155515 0,0.737752 0.37332,1.155515 0.38221,0.417763 1.15552,0.417763 0.7733,0 1.34217,-0.666644 0.57776,-0.666643 0.57776,-1.591054 z m 1.50217,-1.919932 -0.08,2.266586 q 0,1.137738 0.24888,2.675461 h -1.40439 l -0.0356,-1.191069 q -0.39109,0.648866 -1.11107,0.99552 -0.71997,0.337766 -1.67105,0.337766 -0.95108,0 -1.67994,-0.639977 -0.72886,-0.648866 -0.72886,-1.724384 0,-1.191069 0.87996,-1.74216 0.77331,-0.488872 1.97327,-0.666643 1.38662,-0.213326 2.03548,-0.426652 -0.0178,-0.986632 -0.52442,-1.644386 -0.49777,-0.657755 -1.30663,-0.657755 -0.80886,0 -1.40439,0.373321 -0.59553,0.364431 -0.88886,0.968854 l -0.50665,-0.533314 q 0.52443,-0.719975 1.3244,-1.111072 0.79997,-0.399986 1.70661,-0.399986 1.38662,0 2.27547,0.87108 0.89775,0.862192 0.89775,2.24881 z"
         id="path35178" />
      <path
         d="m 143.09375,82.510528 -0.0889,3.253218 q 0,0.853303 0.0889,1.706607 h -1.51995 l 0.0267,-4.106522 q 0,-1.262177 -0.15111,-1.697718 -0.14222,-0.444428 -0.28443,-0.711085 -0.29333,-0.542204 -0.95108,-0.542204 -0.65775,0 -1.13774,0.675532 -0.47998,0.666643 -0.47998,1.377729 v 5.004268 h -1.49328 q 0.08,-1.386618 0.08,-2.666573 0,-1.279954 -0.009,-1.511057 0,-0.231103 -0.0356,-0.604423 -0.0267,-0.373321 -0.0889,-0.657755 -0.0533,-0.284434 -0.16,-0.604423 -0.10666,-0.319989 -0.25777,-0.524426 -0.34665,-0.488872 -0.95996,-0.488872 -0.61331,0 -1.0933,0.675532 -0.47998,0.675532 -0.47998,1.377729 v 5.004268 h -1.51106 q 0.15111,-2.035484 0.15111,-3.910973 0,-1.875489 -0.15111,-3.919861 h 1.33329 l 0.15999,1.164403 q 0.36443,-0.577758 0.92442,-0.959966 0.55998,-0.391098 1.22662,-0.391098 0.66664,0 1.27106,0.453318 0.60443,0.453317 0.89775,1.146626 0.37332,-0.68442 0.96885,-1.137738 0.59554,-0.462206 1.27107,-0.462206 0.68442,0 1.1644,0.248881 0.48888,0.239991 0.76442,0.68442 0.52443,0.853303 0.52443,2.124369 z"
         id="path35180" />
      <path
         d="m 146.07142,83.008288 h 4.15096 q 0.0267,-1.2444 -0.63109,-1.99104 -0.47998,-0.551092 -1.3955,-0.551092 -0.90664,0 -1.50217,0.755529 -0.58665,0.755529 -0.6222,1.786603 z m 5.72424,0.222215 v 0.55998 h -5.79535 v 0.01778 q 0,1.351063 0.66664,2.159923 0.66665,0.808861 1.98216,0.808861 0.75552,0 1.43994,-0.37332 0.69331,-0.382209 1.14663,-1.048852 l 0.38221,0.791083 q -0.56887,0.702197 -1.39551,1.084406 -0.81775,0.382209 -1.71549,0.382209 -1.83105,0 -2.9599,-1.137738 -1.11996,-1.137737 -1.11996,-2.924341 0,-1.786603 1.0933,-2.933229 1.10218,-1.155515 2.77323,-1.155515 1.67105,0 2.59547,1.048852 0.92441,1.048852 0.90663,2.719904 z"
         id="path35182" />
      <path
         d="m 159.94648,82.119431 -0.11555,3.413212 q 0,0.826638 0.11555,1.928821 h -1.49328 v -4.61317 q 0,-1.715495 -0.80886,-2.266587 -0.32888,-0.222214 -0.79997,-0.222214 -0.8533,0 -1.44884,0.657755 -0.58664,0.657754 -0.58664,1.537723 v 4.906493 h -1.49328 q 0.1511,-2.044372 0.1511,-3.902084 0,-1.857712 -0.1511,-3.902084 h 1.30662 l 0.16888,1.146626 q 0.42665,-0.613312 1.09329,-0.977743 0.66665,-0.373321 1.39551,-0.373321 1.13774,0 1.90215,0.755529 0.76442,0.755529 0.76442,1.911044 z"
         id="path35184" />
      <path
         d="m 161.60865,85.372649 0.08,-2.728792 v -2.168812 h -0.72886 V 79.63063 h 0.73775 v -0.222214 q 0,-0.871081 -0.0889,-2.18659 h 1.49328 q -0.0622,1.413284 -0.08,2.408804 h 1.38662 v 0.844415 h -1.40439 q -0.0356,1.875489 -0.0356,3.208775 0,1.324397 0,1.49328 0.009,0.159995 0.0356,0.426652 0.0267,0.257769 0.0889,0.43554 0.0622,0.177772 0.16,0.355543 0.19555,0.355543 0.61331,0.355543 0.42665,0 0.66664,-0.213326 0.23999,-0.222214 0.37332,-0.719974 l 0.23111,0.915523 q -0.25777,0.49776 -0.61332,0.719974 -0.34665,0.213326 -0.88885,0.213326 -0.95997,0 -1.49328,-0.648866 -0.53332,-0.648866 -0.53332,-1.644386 z"
         id="path35186" />
    </g>
  </g>
</svg>
